<?xml version="1.0" encoding="UTF-8" standalone="no"?>
<!DOCTYPE svg PUBLIC "-//W3C//DTD SVG 1.1//EN"
 "http://www.w3.org/Graphics/SVG/1.1/DTD/svg11.dtd">
<!-- Generated by graphviz version 2.38.0 (20140413.2041)
 -->
<!-- Title: controllers_diagram Pages: 1 -->
<svg width="866pt" height="830pt"
 viewBox="0.00 0.00 866.00 829.50" xmlns="http://www.w3.org/2000/svg" xmlns:xlink="http://www.w3.org/1999/xlink">
<g id="graph0" class="graph" transform="scale(1 1) rotate(0) translate(327 483.5)">
<title>controllers_diagram</title>
<polygon fill="none" stroke="none" points="-327,346 -327,-483.5 539,-483.5 539,346 -327,346"/>
<!-- _diagram_info -->
<g id="node1" class="node"><title>_diagram_info</title>
<text text-anchor="start" x="-277" y="221.4" font-family="Times,serif" font-size="13.00">Controllers diagram</text>
<text text-anchor="start" x="-277" y="235.4" font-family="Times,serif" font-size="13.00">Date: Dec 07 2017 &#45; 03:51</text>
<text text-anchor="start" x="-277" y="249.4" font-family="Times,serif" font-size="13.00">Migration version: 20171124230404</text>
<text text-anchor="start" x="-277" y="263.4" font-family="Times,serif" font-size="13.00">Generated by RailRoady 1.5.3</text>
<text text-anchor="start" x="-277" y="277.4" font-family="Times,serif" font-size="13.00">http://railroady.prestonlee.com</text>
</g>
<!-- SessionsController -->
<g id="node2" class="node"><title>SessionsController</title>
<path fill="none" stroke="black" d="M354.5,341.5C354.5,341.5 449.5,341.5 449.5,341.5 455.5,341.5 461.5,335.5 461.5,329.5 461.5,329.5 461.5,200.5 461.5,200.5 461.5,194.5 455.5,188.5 449.5,188.5 449.5,188.5 354.5,188.5 354.5,188.5 348.5,188.5 342.5,194.5 342.5,200.5 342.5,200.5 342.5,329.5 342.5,329.5 342.5,335.5 348.5,341.5 354.5,341.5"/>
<text text-anchor="middle" x="402" y="203.7" font-family="Times,serif" font-size="14.00">SessionsController</text>
<polyline fill="none" stroke="black" points="342.5,211.5 461.5,211.5 "/>
<text text-anchor="start" x="350.5" y="226.7" font-family="Times,serif" font-size="14.00">create</text>
<text text-anchor="start" x="350.5" y="241.7" font-family="Times,serif" font-size="14.00">current_user</text>
<text text-anchor="start" x="350.5" y="256.7" font-family="Times,serif" font-size="14.00">current_user?</text>
<text text-anchor="start" x="350.5" y="271.7" font-family="Times,serif" font-size="14.00">destroy</text>
<text text-anchor="start" x="350.5" y="286.7" font-family="Times,serif" font-size="14.00">new</text>
<polyline fill="none" stroke="black" points="342.5,294.5 461.5,294.5 "/>
<polyline fill="none" stroke="black" points="342.5,318.5 461.5,318.5 "/>
<text text-anchor="start" x="350.5" y="333.7" font-family="Times,serif" font-size="14.00">_layout</text>
</g>
<!-- CommunitiesController -->
<g id="node3" class="node"><title>CommunitiesController</title>
<path fill="none" stroke="black" d="M126,113C126,113 248,113 248,113 254,113 260,107 260,101 260,101 260,-163 260,-163 260,-169 254,-175 248,-175 248,-175 126,-175 126,-175 120,-175 114,-169 114,-163 114,-163 114,101 114,101 114,107 120,113 126,113"/>
<text text-anchor="middle" x="187" y="-159.8" font-family="Times,serif" font-size="14.00">CommunitiesController</text>
<polyline fill="none" stroke="black" points="114,-152 260,-152 "/>
<text text-anchor="start" x="122" y="-136.8" font-family="Times,serif" font-size="14.00">create</text>
<text text-anchor="start" x="122" y="-121.8" font-family="Times,serif" font-size="14.00">create_playlist</text>
<text text-anchor="start" x="122" y="-106.8" font-family="Times,serif" font-size="14.00">destroy</text>
<text text-anchor="start" x="122" y="-91.8" font-family="Times,serif" font-size="14.00">downvote</text>
<text text-anchor="start" x="122" y="-76.8" font-family="Times,serif" font-size="14.00">edit</text>
<text text-anchor="start" x="122" y="-61.8" font-family="Times,serif" font-size="14.00">index</text>
<text text-anchor="start" x="122" y="-46.8" font-family="Times,serif" font-size="14.00">moderation</text>
<text text-anchor="start" x="122" y="-31.8" font-family="Times,serif" font-size="14.00">new</text>
<text text-anchor="start" x="122" y="-16.8" font-family="Times,serif" font-size="14.00">score</text>
<text text-anchor="start" x="122" y="-1.8" font-family="Times,serif" font-size="14.00">show</text>
<text text-anchor="start" x="122" y="13.2" font-family="Times,serif" font-size="14.00">spotify_helper</text>
<text text-anchor="start" x="122" y="28.2" font-family="Times,serif" font-size="14.00">update</text>
<text text-anchor="start" x="122" y="43.2" font-family="Times,serif" font-size="14.00">upvote</text>
<polyline fill="none" stroke="black" points="114,51 260,51 "/>
<polyline fill="none" stroke="black" points="114,75 260,75 "/>
<text text-anchor="start" x="122" y="90.2" font-family="Times,serif" font-size="14.00">_layout</text>
<text text-anchor="start" x="122" y="105.2" font-family="Times,serif" font-size="14.00">comm_params</text>
</g>
<!-- UsersController -->
<g id="node4" class="node"><title>UsersController</title>
<path fill="none" stroke="black" d="M-82.5,170C-82.5,170 58.5,170 58.5,170 64.5,170 70.5,164 70.5,158 70.5,158 70.5,-136 70.5,-136 70.5,-142 64.5,-148 58.5,-148 58.5,-148 -82.5,-148 -82.5,-148 -88.5,-148 -94.5,-142 -94.5,-136 -94.5,-136 -94.5,158 -94.5,158 -94.5,164 -88.5,170 -82.5,170"/>
<text text-anchor="middle" x="-12" y="-132.8" font-family="Times,serif" font-size="14.00">UsersController</text>
<polyline fill="none" stroke="black" points="-94.5,-125 70.5,-125 "/>
<text text-anchor="start" x="-86.5" y="-109.8" font-family="Times,serif" font-size="14.00">add_admin</text>
<text text-anchor="start" x="-86.5" y="-94.8" font-family="Times,serif" font-size="14.00">create</text>
<text text-anchor="start" x="-86.5" y="-79.8" font-family="Times,serif" font-size="14.00">create_playlist_community</text>
<text text-anchor="start" x="-86.5" y="-64.8" font-family="Times,serif" font-size="14.00">create_playlist_playlist</text>
<text text-anchor="start" x="-86.5" y="-49.8" font-family="Times,serif" font-size="14.00">destroy</text>
<text text-anchor="start" x="-86.5" y="-34.8" font-family="Times,serif" font-size="14.00">edit</text>
<text text-anchor="start" x="-86.5" y="-19.8" font-family="Times,serif" font-size="14.00">index</text>
<text text-anchor="start" x="-86.5" y="-4.8" font-family="Times,serif" font-size="14.00">new</text>
<text text-anchor="start" x="-86.5" y="10.2" font-family="Times,serif" font-size="14.00">show</text>
<text text-anchor="start" x="-86.5" y="25.2" font-family="Times,serif" font-size="14.00">spotify</text>
<text text-anchor="start" x="-86.5" y="40.2" font-family="Times,serif" font-size="14.00">spotify_user</text>
<text text-anchor="start" x="-86.5" y="55.2" font-family="Times,serif" font-size="14.00">update</text>
<polyline fill="none" stroke="black" points="-94.5,63 70.5,63 "/>
<polyline fill="none" stroke="black" points="-94.5,87 70.5,87 "/>
<text text-anchor="start" x="-86.5" y="102.2" font-family="Times,serif" font-size="14.00">_layout</text>
<text text-anchor="start" x="-86.5" y="117.2" font-family="Times,serif" font-size="14.00">admin_user</text>
<text text-anchor="start" x="-86.5" y="132.2" font-family="Times,serif" font-size="14.00">correct_user</text>
<text text-anchor="start" x="-86.5" y="147.2" font-family="Times,serif" font-size="14.00">edit_params</text>
<text text-anchor="start" x="-86.5" y="162.2" font-family="Times,serif" font-size="14.00">user_params</text>
</g>
<!-- MicropostsController -->
<g id="node5" class="node"><title>MicropostsController</title>
<path fill="none" stroke="black" d="M-45,-191C-45,-191 65,-191 65,-191 71,-191 77,-197 77,-203 77,-203 77,-467 77,-467 77,-473 71,-479 65,-479 65,-479 -45,-479 -45,-479 -51,-479 -57,-473 -57,-467 -57,-467 -57,-203 -57,-203 -57,-197 -51,-191 -45,-191"/>
<text text-anchor="middle" x="10" y="-463.8" font-family="Times,serif" font-size="14.00">MicropostsController</text>
<polyline fill="none" stroke="black" points="-57,-456 77,-456 "/>
<text text-anchor="start" x="-49" y="-440.8" font-family="Times,serif" font-size="14.00">correct_user</text>
<text text-anchor="start" x="-49" y="-425.8" font-family="Times,serif" font-size="14.00">create</text>
<text text-anchor="start" x="-49" y="-410.8" font-family="Times,serif" font-size="14.00">destroy</text>
<text text-anchor="start" x="-49" y="-395.8" font-family="Times,serif" font-size="14.00">downvote</text>
<text text-anchor="start" x="-49" y="-380.8" font-family="Times,serif" font-size="14.00">edit</text>
<text text-anchor="start" x="-49" y="-365.8" font-family="Times,serif" font-size="14.00">index</text>
<text text-anchor="start" x="-49" y="-350.8" font-family="Times,serif" font-size="14.00">moderation</text>
<text text-anchor="start" x="-49" y="-335.8" font-family="Times,serif" font-size="14.00">new</text>
<text text-anchor="start" x="-49" y="-320.8" font-family="Times,serif" font-size="14.00">score</text>
<text text-anchor="start" x="-49" y="-305.8" font-family="Times,serif" font-size="14.00">show</text>
<text text-anchor="start" x="-49" y="-290.8" font-family="Times,serif" font-size="14.00">update</text>
<text text-anchor="start" x="-49" y="-275.8" font-family="Times,serif" font-size="14.00">upvote</text>
<polyline fill="none" stroke="black" points="-57,-268 77,-268 "/>
<polyline fill="none" stroke="black" points="-57,-244 77,-244 "/>
<text text-anchor="start" x="-49" y="-228.8" font-family="Times,serif" font-size="14.00">_layout</text>
<text text-anchor="start" x="-49" y="-213.8" font-family="Times,serif" font-size="14.00">micropost_params</text>
<text text-anchor="start" x="-49" y="-198.8" font-family="Times,serif" font-size="14.00">require_permission</text>
</g>
<!-- AdminController -->
<g id="node6" class="node"><title>AdminController</title>
<path fill="none" stroke="black" d="M316.5,114C316.5,114 411.5,114 411.5,114 417.5,114 423.5,108 423.5,102 423.5,102 423.5,-42 423.5,-42 423.5,-48 417.5,-54 411.5,-54 411.5,-54 316.5,-54 316.5,-54 310.5,-54 304.5,-48 304.5,-42 304.5,-42 304.5,102 304.5,102 304.5,108 310.5,114 316.5,114"/>
<text text-anchor="middle" x="364" y="-38.8" font-family="Times,serif" font-size="14.00">AdminController</text>
<polyline fill="none" stroke="black" points="304.5,-31 423.5,-31 "/>
<text text-anchor="start" x="312.5" y="-15.8" font-family="Times,serif" font-size="14.00">admin_mgmt</text>
<text text-anchor="start" x="312.5" y="-0.8" font-family="Times,serif" font-size="14.00">community_mgmt</text>
<text text-anchor="start" x="312.5" y="14.2" font-family="Times,serif" font-size="14.00">correct_user</text>
<text text-anchor="start" x="312.5" y="29.2" font-family="Times,serif" font-size="14.00">index</text>
<text text-anchor="start" x="312.5" y="44.2" font-family="Times,serif" font-size="14.00">spotify_mgmt</text>
<text text-anchor="start" x="312.5" y="59.2" font-family="Times,serif" font-size="14.00">usr_mgmt</text>
<polyline fill="none" stroke="black" points="304.5,67 423.5,67 "/>
<polyline fill="none" stroke="black" points="304.5,91 423.5,91 "/>
<text text-anchor="start" x="312.5" y="106.2" font-family="Times,serif" font-size="14.00">_layout</text>
</g>
<!-- Microposts::PolycomsController -->
<g id="node7" class="node"><title>Microposts::PolycomsController</title>
<path fill="none" stroke="black" d="M125.5,265.5C125.5,265.5 296.5,265.5 296.5,265.5 302.5,265.5 308.5,259.5 308.5,253.5 308.5,253.5 308.5,168.5 308.5,168.5 308.5,162.5 302.5,156.5 296.5,156.5 296.5,156.5 125.5,156.5 125.5,156.5 119.5,156.5 113.5,162.5 113.5,168.5 113.5,168.5 113.5,253.5 113.5,253.5 113.5,259.5 119.5,265.5 125.5,265.5"/>
<text text-anchor="middle" x="211" y="171.7" font-family="Times,serif" font-size="14.00">Microposts::PolycomsController</text>
<polyline fill="none" stroke="black" points="113.5,179.5 308.5,179.5 "/>
<polyline fill="none" stroke="black" points="113.5,203.5 308.5,203.5 "/>
<polyline fill="none" stroke="black" points="113.5,227.5 308.5,227.5 "/>
<text text-anchor="start" x="121.5" y="242.7" font-family="Times,serif" font-size="14.00">_layout</text>
<text text-anchor="start" x="121.5" y="257.7" font-family="Times,serif" font-size="14.00">set_commentable</text>
</g>
<!-- ApplicationController -->
<g id="node8" class="node"><title>ApplicationController</title>
<path fill="none" stroke="black" d="M411,-285.5C411,-285.5 523,-285.5 523,-285.5 529,-285.5 535,-291.5 535,-297.5 535,-297.5 535,-382.5 535,-382.5 535,-388.5 529,-394.5 523,-394.5 523,-394.5 411,-394.5 411,-394.5 405,-394.5 399,-388.5 399,-382.5 399,-382.5 399,-297.5 399,-297.5 399,-291.5 405,-285.5 411,-285.5"/>
<text text-anchor="middle" x="467" y="-379.3" font-family="Times,serif" font-size="14.00">ApplicationController</text>
<polyline fill="none" stroke="black" points="399,-371.5 535,-371.5 "/>
<polyline fill="none" stroke="black" points="399,-347.5 535,-347.5 "/>
<polyline fill="none" stroke="black" points="399,-323.5 535,-323.5 "/>
<text text-anchor="start" x="407" y="-308.3" font-family="Times,serif" font-size="14.00">_layout</text>
<text text-anchor="start" x="407" y="-293.3" font-family="Times,serif" font-size="14.00">logged_in_user</text>
</g>
<!-- Polycoms::PolycomsController -->
<g id="node9" class="node"><title>Polycoms::PolycomsController</title>
<path fill="none" stroke="black" d="M-311,151.5C-311,151.5 -147,151.5 -147,151.5 -141,151.5 -135,145.5 -135,139.5 -135,139.5 -135,54.5 -135,54.5 -135,48.5 -141,42.5 -147,42.5 -147,42.5 -311,42.5 -311,42.5 -317,42.5 -323,48.5 -323,54.5 -323,54.5 -323,139.5 -323,139.5 -323,145.5 -317,151.5 -311,151.5"/>
<text text-anchor="middle" x="-229" y="57.7" font-family="Times,serif" font-size="14.00">Polycoms::PolycomsController</text>
<polyline fill="none" stroke="black" points="-323,65.5 -135,65.5 "/>
<polyline fill="none" stroke="black" points="-323,89.5 -135,89.5 "/>
<polyline fill="none" stroke="black" points="-323,113.5 -135,113.5 "/>
<text text-anchor="start" x="-315" y="128.7" font-family="Times,serif" font-size="14.00">_layout</text>
<text text-anchor="start" x="-315" y="143.7" font-family="Times,serif" font-size="14.00">set_commentable</text>
</g>
<!-- PasswordResetsController -->
<g id="node10" class="node"><title>PasswordResetsController</title>
<path fill="none" stroke="black" d="M220.5,-210C220.5,-210 355.5,-210 355.5,-210 361.5,-210 367.5,-216 367.5,-222 367.5,-222 367.5,-396 367.5,-396 367.5,-402 361.5,-408 355.5,-408 355.5,-408 220.5,-408 220.5,-408 214.5,-408 208.5,-402 208.5,-396 208.5,-396 208.5,-222 208.5,-222 208.5,-216 214.5,-210 220.5,-210"/>
<text text-anchor="middle" x="288" y="-392.8" font-family="Times,serif" font-size="14.00">PasswordResetsController</text>
<polyline fill="none" stroke="black" points="208.5,-385 367.5,-385 "/>
<text text-anchor="start" x="216.5" y="-369.8" font-family="Times,serif" font-size="14.00">create</text>
<text text-anchor="start" x="216.5" y="-354.8" font-family="Times,serif" font-size="14.00">edit</text>
<text text-anchor="start" x="216.5" y="-339.8" font-family="Times,serif" font-size="14.00">new</text>
<text text-anchor="start" x="216.5" y="-324.8" font-family="Times,serif" font-size="14.00">update</text>
<polyline fill="none" stroke="black" points="208.5,-317 367.5,-317 "/>
<polyline fill="none" stroke="black" points="208.5,-293 367.5,-293 "/>
<text text-anchor="start" x="216.5" y="-277.8" font-family="Times,serif" font-size="14.00">_layout</text>
<text text-anchor="start" x="216.5" y="-262.8" font-family="Times,serif" font-size="14.00">check_expiration</text>
<text text-anchor="start" x="216.5" y="-247.8" font-family="Times,serif" font-size="14.00">get_user</text>
<text text-anchor="start" x="216.5" y="-232.8" font-family="Times,serif" font-size="14.00">user_params</text>
<text text-anchor="start" x="216.5" y="-217.8" font-family="Times,serif" font-size="14.00">valid_user</text>
</g>
<!-- PlaylistsController -->
<g id="node11" class="node"><title>PlaylistsController</title>
<path fill="none" stroke="black" d="M-235,-1C-235,-1 -141,-1 -141,-1 -135,-1 -129,-7 -129,-13 -129,-13 -129,-187 -129,-187 -129,-193 -135,-199 -141,-199 -141,-199 -235,-199 -235,-199 -241,-199 -247,-193 -247,-187 -247,-187 -247,-13 -247,-13 -247,-7 -241,-1 -235,-1"/>
<text text-anchor="middle" x="-188" y="-183.8" font-family="Times,serif" font-size="14.00">PlaylistsController</text>
<polyline fill="none" stroke="black" points="-247,-176 -129,-176 "/>
<text text-anchor="start" x="-239" y="-160.8" font-family="Times,serif" font-size="14.00">addpost</text>
<text text-anchor="start" x="-239" y="-145.8" font-family="Times,serif" font-size="14.00">create</text>
<text text-anchor="start" x="-239" y="-130.8" font-family="Times,serif" font-size="14.00">create_playlist</text>
<text text-anchor="start" x="-239" y="-115.8" font-family="Times,serif" font-size="14.00">new</text>
<text text-anchor="start" x="-239" y="-100.8" font-family="Times,serif" font-size="14.00">removepost</text>
<text text-anchor="start" x="-239" y="-85.8" font-family="Times,serif" font-size="14.00">show</text>
<text text-anchor="start" x="-239" y="-70.8" font-family="Times,serif" font-size="14.00">spotify_helper</text>
<polyline fill="none" stroke="black" points="-247,-63 -129,-63 "/>
<polyline fill="none" stroke="black" points="-247,-39 -129,-39 "/>
<text text-anchor="start" x="-239" y="-23.8" font-family="Times,serif" font-size="14.00">_layout</text>
<text text-anchor="start" x="-239" y="-8.8" font-family="Times,serif" font-size="14.00">playlist_params</text>
</g>
<!-- PolycomsController -->
<g id="node12" class="node"><title>PolycomsController</title>
<path fill="none" stroke="black" d="M-216,-229C-216,-229 -114,-229 -114,-229 -108,-229 -102,-235 -102,-241 -102,-241 -102,-445 -102,-445 -102,-451 -108,-457 -114,-457 -114,-457 -216,-457 -216,-457 -222,-457 -228,-451 -228,-445 -228,-445 -228,-241 -228,-241 -228,-235 -222,-229 -216,-229"/>
<text text-anchor="middle" x="-165" y="-441.8" font-family="Times,serif" font-size="14.00">PolycomsController</text>
<polyline fill="none" stroke="black" points="-228,-434 -102,-434 "/>
<text text-anchor="start" x="-220" y="-418.8" font-family="Times,serif" font-size="14.00">create</text>
<text text-anchor="start" x="-220" y="-403.8" font-family="Times,serif" font-size="14.00">destroy</text>
<text text-anchor="start" x="-220" y="-388.8" font-family="Times,serif" font-size="14.00">downvote</text>
<text text-anchor="start" x="-220" y="-373.8" font-family="Times,serif" font-size="14.00">edit</text>
<text text-anchor="start" x="-220" y="-358.8" font-family="Times,serif" font-size="14.00">score</text>
<text text-anchor="start" x="-220" y="-343.8" font-family="Times,serif" font-size="14.00">show</text>
<text text-anchor="start" x="-220" y="-328.8" font-family="Times,serif" font-size="14.00">update</text>
<text text-anchor="start" x="-220" y="-313.8" font-family="Times,serif" font-size="14.00">upvote</text>
<polyline fill="none" stroke="black" points="-228,-306 -102,-306 "/>
<polyline fill="none" stroke="black" points="-228,-282 -102,-282 "/>
<text text-anchor="start" x="-220" y="-266.8" font-family="Times,serif" font-size="14.00">_layout</text>
<text text-anchor="start" x="-220" y="-251.8" font-family="Times,serif" font-size="14.00">comment_params</text>
<text text-anchor="start" x="-220" y="-236.8" font-family="Times,serif" font-size="14.00">get_micropost</text>
</g>
<!-- StaticPagesController -->
<g id="node13" class="node"><title>StaticPagesController</title>
<path fill="none" stroke="black" d="M411,-95.5C411,-95.5 521,-95.5 521,-95.5 527,-95.5 533,-101.5 533,-107.5 533,-107.5 533,-236.5 533,-236.5 533,-242.5 527,-248.5 521,-248.5 521,-248.5 411,-248.5 411,-248.5 405,-248.5 399,-242.5 399,-236.5 399,-236.5 399,-107.5 399,-107.5 399,-101.5 405,-95.5 411,-95.5"/>
<text text-anchor="middle" x="466" y="-233.3" font-family="Times,serif" font-size="14.00">StaticPagesController</text>
<polyline fill="none" stroke="black" points="399,-225.5 533,-225.5 "/>
<text text-anchor="start" x="407" y="-210.3" font-family="Times,serif" font-size="14.00">about</text>
<text text-anchor="start" x="407" y="-195.3" font-family="Times,serif" font-size="14.00">help</text>
<text text-anchor="start" x="407" y="-180.3" font-family="Times,serif" font-size="14.00">home</text>
<text text-anchor="start" x="407" y="-165.3" font-family="Times,serif" font-size="14.00">spotify</text>
<text text-anchor="start" x="407" y="-150.3" font-family="Times,serif" font-size="14.00">spotify_helper</text>
<polyline fill="none" stroke="black" points="399,-142.5 533,-142.5 "/>
<polyline fill="none" stroke="black" points="399,-118.5 533,-118.5 "/>
<text text-anchor="start" x="407" y="-103.3" font-family="Times,serif" font-size="14.00">_layout</text>
</g>
<!-- WelcomeController -->
<g id="node14" class="node"><title>WelcomeController</title>
<path fill="none" stroke="black" d="M-26.5,303.5C-26.5,303.5 74.5,303.5 74.5,303.5 80.5,303.5 86.5,297.5 86.5,291.5 86.5,291.5 86.5,222.5 86.5,222.5 86.5,216.5 80.5,210.5 74.5,210.5 74.5,210.5 -26.5,210.5 -26.5,210.5 -32.5,210.5 -38.5,216.5 -38.5,222.5 -38.5,222.5 -38.5,291.5 -38.5,291.5 -38.5,297.5 -32.5,303.5 -26.5,303.5"/>
<text text-anchor="middle" x="24" y="225.7" font-family="Times,serif" font-size="14.00">WelcomeController</text>
<polyline fill="none" stroke="black" points="-38.5,233.5 86.5,233.5 "/>
<text text-anchor="start" x="-30.5" y="248.7" font-family="Times,serif" font-size="14.00">index</text>
<polyline fill="none" stroke="black" points="-38.5,256.5 86.5,256.5 "/>
<polyline fill="none" stroke="black" points="-38.5,280.5 86.5,280.5 "/>
<text text-anchor="start" x="-30.5" y="295.7" font-family="Times,serif" font-size="14.00">_layout</text>
</g>
</g>
</svg>
