<?xml version="1.0" encoding="UTF-8" standalone="no"?>
<!DOCTYPE svg PUBLIC "-//W3C//DTD SVG 1.1//EN"
 "http://www.w3.org/Graphics/SVG/1.1/DTD/svg11.dtd">
<!-- Generated by graphviz version 2.38.0 (20140413.2041)
 -->
<!-- Title: models_diagram Pages: 1 -->
<svg width="947pt" height="836pt"
 viewBox="0.00 0.00 946.50 836.00" xmlns="http://www.w3.org/2000/svg" xmlns:xlink="http://www.w3.org/1999/xlink">
<g id="graph0" class="graph" transform="scale(1 1) rotate(0) translate(4 832)">
<title>models_diagram</title>
<polygon fill="none" stroke="none" points="-4,4 -4,-832 942.5,-832 942.5,4 -4,4"/>
<!-- _diagram_info -->
<g id="node1" class="node"><title>_diagram_info</title>
<text text-anchor="start" x="8" y="-739.1" font-family="Times,serif" font-size="13.00">Models diagram</text>
<text text-anchor="start" x="8" y="-725.1" font-family="Times,serif" font-size="13.00">Date: Dec 07 2017 &#45; 03:51</text>
<text text-anchor="start" x="8" y="-711.1" font-family="Times,serif" font-size="13.00">Migration version: 20171124230404</text>
<text text-anchor="start" x="8" y="-697.1" font-family="Times,serif" font-size="13.00">Generated by RailRoady 1.5.3</text>
<text text-anchor="start" x="8" y="-683.1" font-family="Times,serif" font-size="13.00">http://railroady.prestonlee.com</text>
</g>
<!-- ApplicationRecord -->
<g id="node2" class="node"><title>ApplicationRecord</title>
<ellipse fill="none" stroke="black" cx="309" cy="-714.5" rx="77.1866" ry="18"/>
<text text-anchor="middle" x="309" y="-710.8" font-family="Times,serif" font-size="14.00">ApplicationRecord</text>
</g>
<!-- Community -->
<g id="node3" class="node"><title>Community</title>
<path fill="none" stroke="black" d="M416.5,-601.5C416.5,-601.5 583.5,-601.5 583.5,-601.5 589.5,-601.5 595.5,-607.5 595.5,-613.5 595.5,-613.5 595.5,-815.5 595.5,-815.5 595.5,-821.5 589.5,-827.5 583.5,-827.5 583.5,-827.5 416.5,-827.5 416.5,-827.5 410.5,-827.5 404.5,-821.5 404.5,-815.5 404.5,-815.5 404.5,-613.5 404.5,-613.5 404.5,-607.5 410.5,-601.5 416.5,-601.5"/>
<text text-anchor="middle" x="500" y="-812.3" font-family="Times,serif" font-size="14.00">Community</text>
<polyline fill="none" stroke="black" points="404.5,-804.5 595.5,-804.5 "/>
<text text-anchor="start" x="412.5" y="-789.3" font-family="Times,serif" font-size="14.00">id :INTEGER</text>
<text text-anchor="start" x="412.5" y="-774.3" font-family="Times,serif" font-size="14.00">created_at :datetime</text>
<text text-anchor="start" x="412.5" y="-759.3" font-family="Times,serif" font-size="14.00">updated_at :datetime</text>
<text text-anchor="start" x="412.5" y="-744.3" font-family="Times,serif" font-size="14.00">title :varchar</text>
<text text-anchor="start" x="412.5" y="-729.3" font-family="Times,serif" font-size="14.00">cached_votes_score :integer</text>
<text text-anchor="start" x="412.5" y="-714.3" font-family="Times,serif" font-size="14.00">cached_votes_total :integer</text>
<text text-anchor="start" x="412.5" y="-699.3" font-family="Times,serif" font-size="14.00">cached_votes_up :integer</text>
<text text-anchor="start" x="412.5" y="-684.3" font-family="Times,serif" font-size="14.00">cached_votes_down :integer</text>
<text text-anchor="start" x="412.5" y="-669.3" font-family="Times,serif" font-size="14.00">cached_weighted_score :integer</text>
<text text-anchor="start" x="412.5" y="-654.3" font-family="Times,serif" font-size="14.00">cached_weighted_total :integer</text>
<text text-anchor="start" x="412.5" y="-639.3" font-family="Times,serif" font-size="14.00">cached_weighted_average :float</text>
<text text-anchor="start" x="412.5" y="-624.3" font-family="Times,serif" font-size="14.00">description :varchar</text>
<text text-anchor="start" x="412.5" y="-609.3" font-family="Times,serif" font-size="14.00">user_id :integer</text>
</g>
<!-- Micropost -->
<g id="node4" class="node"><title>Micropost</title>
<path fill="none" stroke="black" d="M637.5,-0.5C637.5,-0.5 804.5,-0.5 804.5,-0.5 810.5,-0.5 816.5,-6.5 816.5,-12.5 816.5,-12.5 816.5,-274.5 816.5,-274.5 816.5,-280.5 810.5,-286.5 804.5,-286.5 804.5,-286.5 637.5,-286.5 637.5,-286.5 631.5,-286.5 625.5,-280.5 625.5,-274.5 625.5,-274.5 625.5,-12.5 625.5,-12.5 625.5,-6.5 631.5,-0.5 637.5,-0.5"/>
<text text-anchor="middle" x="721" y="-271.3" font-family="Times,serif" font-size="14.00">Micropost</text>
<polyline fill="none" stroke="black" points="625.5,-263.5 816.5,-263.5 "/>
<text text-anchor="start" x="633.5" y="-248.3" font-family="Times,serif" font-size="14.00">id :INTEGER</text>
<text text-anchor="start" x="633.5" y="-233.3" font-family="Times,serif" font-size="14.00">content :text</text>
<text text-anchor="start" x="633.5" y="-218.3" font-family="Times,serif" font-size="14.00">user_id :integer</text>
<text text-anchor="start" x="633.5" y="-203.3" font-family="Times,serif" font-size="14.00">created_at :datetime</text>
<text text-anchor="start" x="633.5" y="-188.3" font-family="Times,serif" font-size="14.00">updated_at :datetime</text>
<text text-anchor="start" x="633.5" y="-173.3" font-family="Times,serif" font-size="14.00">url :varchar</text>
<text text-anchor="start" x="633.5" y="-158.3" font-family="Times,serif" font-size="14.00">title :varchar</text>
<text text-anchor="start" x="633.5" y="-143.3" font-family="Times,serif" font-size="14.00">genre :varchar</text>
<text text-anchor="start" x="633.5" y="-128.3" font-family="Times,serif" font-size="14.00">artist :varchar</text>
<text text-anchor="start" x="633.5" y="-113.3" font-family="Times,serif" font-size="14.00">cached_votes_total :integer</text>
<text text-anchor="start" x="633.5" y="-98.3" font-family="Times,serif" font-size="14.00">cached_votes_score :integer</text>
<text text-anchor="start" x="633.5" y="-83.3" font-family="Times,serif" font-size="14.00">cached_votes_up :integer</text>
<text text-anchor="start" x="633.5" y="-68.3" font-family="Times,serif" font-size="14.00">cached_votes_down :integer</text>
<text text-anchor="start" x="633.5" y="-53.3" font-family="Times,serif" font-size="14.00">cached_weighted_score :integer</text>
<text text-anchor="start" x="633.5" y="-38.3" font-family="Times,serif" font-size="14.00">cached_weighted_total :integer</text>
<text text-anchor="start" x="633.5" y="-23.3" font-family="Times,serif" font-size="14.00">cached_weighted_average :float</text>
<text text-anchor="start" x="633.5" y="-8.3" font-family="Times,serif" font-size="14.00">community_id :integer</text>
</g>
<!-- Polycom -->
<g id="node5" class="node"><title>Polycom</title>
<path fill="none" stroke="black" d="M610.5,-323.5C610.5,-323.5 777.5,-323.5 777.5,-323.5 783.5,-323.5 789.5,-329.5 789.5,-335.5 789.5,-335.5 789.5,-552.5 789.5,-552.5 789.5,-558.5 783.5,-564.5 777.5,-564.5 777.5,-564.5 610.5,-564.5 610.5,-564.5 604.5,-564.5 598.5,-558.5 598.5,-552.5 598.5,-552.5 598.5,-335.5 598.5,-335.5 598.5,-329.5 604.5,-323.5 610.5,-323.5"/>
<text text-anchor="middle" x="694" y="-549.3" font-family="Times,serif" font-size="14.00">Polycom</text>
<polyline fill="none" stroke="black" points="598.5,-541.5 789.5,-541.5 "/>
<text text-anchor="start" x="606.5" y="-526.3" font-family="Times,serif" font-size="14.00">id :INTEGER</text>
<text text-anchor="start" x="606.5" y="-511.3" font-family="Times,serif" font-size="14.00">commentable_type :varchar</text>
<text text-anchor="start" x="606.5" y="-496.3" font-family="Times,serif" font-size="14.00">commentable_id :integer</text>
<text text-anchor="start" x="606.5" y="-481.3" font-family="Times,serif" font-size="14.00">user_id :integer</text>
<text text-anchor="start" x="606.5" y="-466.3" font-family="Times,serif" font-size="14.00">body :text</text>
<text text-anchor="start" x="606.5" y="-451.3" font-family="Times,serif" font-size="14.00">created_at :datetime</text>
<text text-anchor="start" x="606.5" y="-436.3" font-family="Times,serif" font-size="14.00">updated_at :datetime</text>
<text text-anchor="start" x="606.5" y="-421.3" font-family="Times,serif" font-size="14.00">cached_votes_total :integer</text>
<text text-anchor="start" x="606.5" y="-406.3" font-family="Times,serif" font-size="14.00">cached_votes_score :integer</text>
<text text-anchor="start" x="606.5" y="-391.3" font-family="Times,serif" font-size="14.00">cached_votes_up :integer</text>
<text text-anchor="start" x="606.5" y="-376.3" font-family="Times,serif" font-size="14.00">cached_votes_down :integer</text>
<text text-anchor="start" x="606.5" y="-361.3" font-family="Times,serif" font-size="14.00">cached_weighted_score :integer</text>
<text text-anchor="start" x="606.5" y="-346.3" font-family="Times,serif" font-size="14.00">cached_weighted_total :integer</text>
<text text-anchor="start" x="606.5" y="-331.3" font-family="Times,serif" font-size="14.00">cached_weighted_average :float</text>
</g>
<!-- User -->
<g id="node6" class="node"><title>User</title>
<path fill="none" stroke="black" d="M626,-616.5C626,-616.5 762,-616.5 762,-616.5 768,-616.5 774,-622.5 774,-628.5 774,-628.5 774,-800.5 774,-800.5 774,-806.5 768,-812.5 762,-812.5 762,-812.5 626,-812.5 626,-812.5 620,-812.5 614,-806.5 614,-800.5 614,-800.5 614,-628.5 614,-628.5 614,-622.5 620,-616.5 626,-616.5"/>
<text text-anchor="middle" x="694" y="-797.3" font-family="Times,serif" font-size="14.00">User</text>
<polyline fill="none" stroke="black" points="614,-789.5 774,-789.5 "/>
<text text-anchor="start" x="622" y="-774.3" font-family="Times,serif" font-size="14.00">id :INTEGER</text>
<text text-anchor="start" x="622" y="-759.3" font-family="Times,serif" font-size="14.00">name :varchar</text>
<text text-anchor="start" x="622" y="-744.3" font-family="Times,serif" font-size="14.00">email :varchar</text>
<text text-anchor="start" x="622" y="-729.3" font-family="Times,serif" font-size="14.00">created_at :datetime</text>
<text text-anchor="start" x="622" y="-714.3" font-family="Times,serif" font-size="14.00">updated_at :datetime</text>
<text text-anchor="start" x="622" y="-699.3" font-family="Times,serif" font-size="14.00">password_digest :varchar</text>
<text text-anchor="start" x="622" y="-684.3" font-family="Times,serif" font-size="14.00">remember_digest :varchar</text>
<text text-anchor="start" x="622" y="-669.3" font-family="Times,serif" font-size="14.00">admin :boolean</text>
<text text-anchor="start" x="622" y="-654.3" font-family="Times,serif" font-size="14.00">reset_digest :varchar</text>
<text text-anchor="start" x="622" y="-639.3" font-family="Times,serif" font-size="14.00">reset_sent_at :datetime</text>
<text text-anchor="start" x="622" y="-624.3" font-family="Times,serif" font-size="14.00">spot_hash :blob</text>
</g>
<!-- User&#45;&gt;Micropost -->
<g id="edge1" class="edge"><title>User&#45;&gt;Micropost</title>
<path fill="none" stroke="#0c5164" d="M609.883,-609.533C601.778,-595.236 594.8,-580.22 590,-565 557.653,-462.424 556.518,-425.211 590,-323 596.984,-301.68 607.592,-280.804 619.809,-261.277"/>
<ellipse fill="none" stroke="#0c5164" cx="611.93" cy="-613.037" rx="4.00002" ry="4.00002"/>
<polygon fill="#0c5164" stroke="#0c5164" points="619.918,-261.107 629.116,-255.135 622.625,-256.903 625.332,-252.699 625.332,-252.699 625.332,-252.699 622.625,-256.903 621.549,-250.263 619.918,-261.107 619.918,-261.107"/>
</g>
<!-- User&#45;&gt;Polycom -->
<g id="edge2" class="edge"><title>User&#45;&gt;Polycom</title>
<path fill="none" stroke="#542b83" d="M694,-607.925C694,-597.11 694,-586.035 694,-574.998"/>
<ellipse fill="none" stroke="#542b83" cx="694" cy="-612.186" rx="4" ry="4"/>
<polygon fill="#542b83" stroke="#542b83" points="694,-574.881 698.5,-564.881 694,-569.881 694,-564.881 694,-564.881 694,-564.881 694,-569.881 689.5,-564.881 694,-574.881 694,-574.881"/>
</g>
<!-- Playlist -->
<g id="node7" class="node"><title>Playlist</title>
<path fill="none" stroke="black" d="M819.5,-391C819.5,-391 926.5,-391 926.5,-391 932.5,-391 938.5,-397 938.5,-403 938.5,-403 938.5,-485 938.5,-485 938.5,-491 932.5,-497 926.5,-497 926.5,-497 819.5,-497 819.5,-497 813.5,-497 807.5,-491 807.5,-485 807.5,-485 807.5,-403 807.5,-403 807.5,-397 813.5,-391 819.5,-391"/>
<text text-anchor="middle" x="873" y="-481.8" font-family="Times,serif" font-size="14.00">Playlist</text>
<polyline fill="none" stroke="black" points="807.5,-474 938.5,-474 "/>
<text text-anchor="start" x="815.5" y="-458.8" font-family="Times,serif" font-size="14.00">id :INTEGER</text>
<text text-anchor="start" x="815.5" y="-443.8" font-family="Times,serif" font-size="14.00">name :varchar</text>
<text text-anchor="start" x="815.5" y="-428.8" font-family="Times,serif" font-size="14.00">created_at :datetime</text>
<text text-anchor="start" x="815.5" y="-413.8" font-family="Times,serif" font-size="14.00">updated_at :datetime</text>
<text text-anchor="start" x="815.5" y="-398.8" font-family="Times,serif" font-size="14.00">user_id :integer</text>
</g>
<!-- User&#45;&gt;Playlist -->
<g id="edge3" class="edge"><title>User&#45;&gt;Playlist</title>
<path fill="none" stroke="#1363e6" d="M768.797,-609.466C779.092,-594.641 789.413,-579.505 799,-565 811.581,-545.965 824.812,-524.88 836.551,-505.763"/>
<ellipse fill="none" stroke="#1363e6" cx="766.357" cy="-612.969" rx="4.00002" ry="4.00002"/>
<polygon fill="#1363e6" stroke="#1363e6" points="836.613,-505.662 845.671,-499.481 839.223,-501.397 841.833,-497.132 841.833,-497.132 841.833,-497.132 839.223,-501.397 837.994,-494.783 836.613,-505.662 836.613,-505.662"/>
</g>
<!-- Playlist&#45;&gt;Micropost -->
<g id="edge4" class="edge"><title>Playlist&#45;&gt;Micropost</title>
<path fill="none" stroke="#e7e780" d="M841.704,-381.541C828.898,-356.391 813.463,-326.081 797.975,-295.665"/>
<polygon fill="#e7e780" stroke="#e7e780" points="841.812,-381.752 842.34,-392.706 844.081,-386.208 846.35,-390.664 846.35,-390.664 846.35,-390.664 844.081,-386.208 850.36,-388.622 841.812,-381.752 841.812,-381.752"/>
<polygon fill="#e7e780" stroke="#e7e780" points="797.927,-295.57 797.399,-284.617 795.658,-291.115 793.389,-286.659 793.389,-286.659 793.389,-286.659 795.658,-291.115 789.379,-288.701 797.927,-295.57 797.927,-295.57"/>
</g>
</g>
</svg>
